
<svg xmlns="http://www.w3.org/2000/svg" viewBox="0 0 100 100">
  <path d="M50 5C25.2 5 5 25.2 5 50s20.2 45 45 45 45-20.2 45-45S74.8 5 50 5zm0 6.3c21.3 0 38.7 17.4 38.7 38.7S71.3 88.7 50 88.7 11.3 71.3 11.3 50 28.7 11.3 50 11.3z" fill="#FF6633"/>
  <path d="M33.5 40c-3.2 0-5.8 2.6-5.8 5.8v25c0 3.2 2.6 5.8 5.8 5.8h33c3.2 0 5.8-2.6 5.8-5.8v-25c0-3.2-2.6-5.8-5.8-5.8h-33zm38.8 10.4v20.4c0 3.2-2.6 5.8-5.8 5.8h-33c-2.1 0-3.9-1.1-4.9-2.8C44.8 73.7 59 67 59 56c0-7.3-5.9-13.3-13.3-13.3-6.4 0-11.7 4.5-13 10.4h5.2c1.2-3.1 4.2-5.2 7.8-5.2 4.6 0 8.3 3.7 8.3 8.3 0 8.3-12.4 13.7-26.3 14.5V45.8c0-3.2 2.6-5.8 5.8-5.8h33c3.2 0 5.8 2.6 5.8 5.8v4.6z" fill="#FF6633"/>
</svg>
