
<svg xmlns="http://www.w3.org/2000/svg" viewBox="0 0 100 100">
  <path d="M50 5C25.1 5 5 25.1 5 50c0 19.9 12.9 36.8 30.8 42.8 2.3.4 3.1-1 3.1-2.2 0-1.1 0-4-.1-7.8-12.5 2.7-15.2-6-15.2-6-2-5.2-5-6.6-5-6.6-4.1-2.8.3-2.7.3-2.7 4.5.3 6.9 4.6 6.9 4.6 4 6.9 10.6 4.9 13.1 3.7.4-2.9 1.6-4.9 2.9-6-10-1.1-20.5-5-20.5-22.3 0-4.9 1.8-9 4.6-12.1-.5-1.1-2-5.7.4-11.9 0 0 3.7-1.2 12.3 4.6 3.6-1 7.4-1.5 11.2-1.5 3.8 0 7.6.5 11.2 1.5 8.5-5.8 12.3-4.6 12.3-4.6 2.4 6.2.9 10.8.4 11.9 2.9 3.1 4.6 7.2 4.6 12.1 0 17.3-10.5 21.2-20.6 22.3 1.6 1.4 3 4.1 3 8.3 0 6 0 10.8 0 12.3 0 1.2.8 2.6 3.1 2.2C82.1 86.8 95 69.9 95 50 95 25.1 74.9 5 50 5z" fill="#181717"/>
</svg>
