
<svg xmlns="http://www.w3.org/2000/svg" viewBox="0 0 100 100">
  <path d="M50 5C25.1 5 5 25.1 5 50s20.1 45 45 45 45-20.1 45-45S74.9 5 50 5z" fill="#F0D6B7"/>
  <path d="M64.1 19.3c-3.8 0-6.9 3.1-6.9 6.9s3.1 6.9 6.9 6.9 6.9-3.1 6.9-6.9-3.1-6.9-6.9-6.9zm-28.2 0c-3.8 0-6.9 3.1-6.9 6.9s3.1 6.9 6.9 6.9 6.9-3.1 6.9-6.9-3.1-6.9-6.9-6.9zM50 40c-14.1 0-25.5 6.3-25.5 14v20.5c0 7.7 11.4 14 25.5 14s25.5-6.3 25.5-14V54c0-7.7-11.4-14-25.5-14z" fill="#D33833"/>
  <path d="M45.3 43.5c-5.5 0-10 4.5-10 10s4.5 10 10 10 10-4.5 10-10-4.5-10-10-10z" fill="#FFF"/>
</svg>
