
<svg xmlns="http://www.w3.org/2000/svg" viewBox="0 0 100 100">
  <path fill="#4672B3" d="M50 5C25.1 5 5 25.1 5 50s20.1 45 45 45 45-20.1 45-45S74.9 5 50 5zm0 82.5c-20.7 0-37.5-16.8-37.5-37.5S29.3 12.5 50 12.5 87.5 29.3 87.5 50 70.7 87.5 50 87.5z"/>
  <path fill="#4672B3" d="M67.9 48.6c-.8-1.6-2-2.9-3.4-3.8.4-.6.8-1.3 1.1-2 1.1-2.6.7-5.6-1-7.9-1.3-1.7-3.3-2.9-5.6-3.2-1.6-.3-3.2 0-4.6.7-.9-1.5-2.2-2.7-3.8-3.4-2.6-1.1-5.6-.7-7.9 1-1.7 1.3-2.9 3.3-3.2 5.6-.2 1.4.1 2.7.6 4-1.8.9-3.4 2.3-4.3 4.1-1.1 2.6-.7 5.6 1 7.9 1 1.3 2.4 2.3 4 2.9-.3 1-.5 2.1-.4 3.3.2 2.3 1.4 4.3 3.2 5.6 2.2 1.7 5.2 2.1 7.9 1 1.6-.7 2.9-1.9 3.8-3.4 1.4.7 3 1 4.6.7 2.3-.2 4.3-1.4 5.6-3.2 1.7-2.2 2.1-5.2 1-7.9-.7-1.6-1.9-2.9-3.4-3.8 1.1-1.4 1.9-3.2 2.1-5.1-.1-1.2-.1-2.2-.3-3.1z"/>
  <path fill="#fff" d="M61.3 49.8c0 6.2-5.1 11.3-11.3 11.3s-11.3-5.1-11.3-11.3S43.8 38.5 50 38.5s11.3 5.1 11.3 11.3z"/>
  <path fill="#4672B3" d="M53.1 53.5h-2.9V44c0-.9-.8-1.7-1.7-1.7h-2.7V39h2.7c3.2 0 5.9 2.6 5.9 5.9v4.4h-1.3v4.2zm-8.1 1.9h10.3v-7.9h-1.4v6.5h-7.4v-6.5h-1.5z"/>
</svg>
